<?xml version="1.0" encoding="utf-8"?>

<!-- License Agreement at http://iconmonstr.com/license/ -->

<!DOCTYPE svg PUBLIC "-//W3C//DTD SVG 1.1//EN" "http://www.w3.org/Graphics/SVG/1.1/DTD/svg11.dtd">
<svg version="1.1" xmlns="http://www.w3.org/2000/svg" xmlns:xlink="http://www.w3.org/1999/xlink" x="0px" y="0px"
	 width="512px" height="512px" viewBox="0 0 512 512" enable-background="new 0 0 512 512" xml:space="preserve">
<path id="menu-8-icon" d="M422,144v278H90V144H422 M462,50H50v412h412V50z M194.141,284.181c0,17.22-13.959,31.18-31.179,31.18
	c-17.221,0-31.18-13.96-31.18-31.18c0-17.221,13.959-31.181,31.18-31.181C180.182,253,194.141,266.96,194.141,284.181z M256,253
	c-17.221,0-31.181,13.96-31.181,31.181c0,17.22,13.96,31.18,31.181,31.18c17.22,0,31.18-13.96,31.18-31.18
	C287.18,266.96,273.22,253,256,253z M349.037,253c-17.22,0-31.178,13.96-31.178,31.181c0,17.22,13.958,31.18,31.178,31.18
	c17.222,0,31.181-13.96,31.181-31.18C380.218,266.96,366.259,253,349.037,253z"/>
</svg>
