<?xml version="1.0" encoding="utf-8"?>

<!-- License Agreement at http://iconmonstr.com/license/ -->

<!DOCTYPE svg PUBLIC "-//W3C//DTD SVG 1.1//EN" "http://www.w3.org/Graphics/SVG/1.1/DTD/svg11.dtd">
<svg version="1.1" xmlns="http://www.w3.org/2000/svg" xmlns:xlink="http://www.w3.org/1999/xlink" x="0px" y="0px"
	 width="512px" height="512px" viewBox="0 0 512 512" style="enable-background:new 0 0 512 512;" xml:space="preserve">
<path id="control-panel-10-icon" d="M334.502,147.189h23.4v105.122h-23.4V147.189z M244.592,147.189h23.4v45.777h-23.4V147.189z
	 M154.098,147.189h23.4v105.122h-23.4V147.189z M200.604,310.227h-23.105v54.584h-23.4v-54.584h-23.109v-40.365h69.615V310.227z
	 M291.1,250.881h-23.107v113.93h-23.4v-113.93h-23.107v-40.364H291.1V250.881z M381.01,310.341h-23.107v54.47h-23.4v-54.47h-23.107
	v-40.365h69.615V310.341z M382,90c22.092,0,40,17.908,40,40v252c0,22.092-17.908,40-40,40H130c-22.092,0-40-17.908-40-40V130
	c0-22.092,17.908-40,40-40H382z M462,125c0-41.422-33.578-75-75-75H125c-41.422,0-75,33.578-75,75v262c0,41.422,33.578,75,75,75h262
	c41.422,0,75-33.578,75-75V125z"/>
</svg>
