<?xml version="1.0" encoding="utf-8"?>

<!-- License Agreement at http://iconmonstr.com/license/ -->

<!DOCTYPE svg PUBLIC "-//W3C//DTD SVG 1.1//EN" "http://www.w3.org/Graphics/SVG/1.1/DTD/svg11.dtd">
<svg version="1.1" xmlns="http://www.w3.org/2000/svg" xmlns:xlink="http://www.w3.org/1999/xlink" x="0px" y="0px"
	 width="512px" height="512px" viewBox="0 0 512 512" style="enable-background:new 0 0 512 512;" xml:space="preserve">
<path id="control-panel-11-icon" d="M387,50H125c-41.422,0-75,33.578-75,75v262c0,41.421,33.578,75,75,75h262
	c41.422,0,75-33.579,75-75V125C462,83.578,428.422,50,387,50z M256,410.266c-29.974,0-54.269-24.299-54.269-54.271
	s24.295-54.269,54.269-54.269c29.971,0,54.269,24.297,54.269,54.269S285.971,410.266,256,410.266z M422,256H302.186L256,189.667
	L209.814,256H90V130c0-22.092,17.908-40,40-40h252c22.092,0,40,17.908,40,40V256z M146.001,169h-20v-54h20V169z M186.001,153h-20
	v-38h20V153z M226.001,153h-20v-38h20V153z M306.001,153h-20v-38h20V153z M346.001,153h-20v-38h20V153z M386.001,169h-20v-54h20V169
	z M266.001,169h-20v-54h20V169z M269.5,330.5c0,7.456-6.044,13.5-13.5,13.5c-7.455,0-13.5-6.044-13.5-13.5
	c0-7.455,6.045-13.5,13.5-13.5C263.456,317,269.5,323.045,269.5,330.5z"/>
</svg>
