<?xml version="1.0" encoding="utf-8"?>

<!-- License Agreement at http://iconmonstr.com/license/ -->

<!DOCTYPE svg PUBLIC "-//W3C//DTD SVG 1.1//EN" "http://www.w3.org/Graphics/SVG/1.1/DTD/svg11.dtd">
<svg version="1.1" xmlns="http://www.w3.org/2000/svg" xmlns:xlink="http://www.w3.org/1999/xlink" x="0px" y="0px"
	 width="512px" height="512px" viewBox="0 0 512 512" style="enable-background:new 0 0 512 512;" xml:space="preserve">
<path id="control-panel-12-icon" d="M387,50H125c-41.422,0-75,33.578-75,75v262c0,41.421,33.578,75,75,75h262
	c41.422,0,75-33.579,75-75V125C462,83.578,428.422,50,387,50z M166.249,404.245c-27.753,0-50.249-22.498-50.249-50.25
	c0-27.751,22.496-50.249,50.249-50.249c27.751,0,50.249,22.498,50.249,50.249C216.498,381.747,194,404.245,166.249,404.245z
	 M379.25,370.745H239.744c1.228-5.39,1.879-10.995,1.879-16.75c0-5.756-0.651-11.361-1.879-16.75H379.25
	c9.251,0,16.75,7.499,16.75,16.75C396,363.245,388.501,370.745,379.25,370.745z M422,256H90V130c0-22.092,17.908-40,40-40h252
	c22.092,0,40,17.908,40,40V256z M226.5,228H115l111.5-42.064V228z"/>
</svg>
