<?xml version="1.0" encoding="utf-8"?>

<!-- License Agreement at http://iconmonstr.com/license/ -->

<!DOCTYPE svg PUBLIC "-//W3C//DTD SVG 1.1//EN" "http://www.w3.org/Graphics/SVG/1.1/DTD/svg11.dtd">
<svg version="1.1" xmlns="http://www.w3.org/2000/svg" xmlns:xlink="http://www.w3.org/1999/xlink" x="0px" y="0px"
	 width="512px" height="512px" viewBox="0 0 512 512" style="enable-background:new 0 0 512 512;" xml:space="preserve">
<path id="control-panel-15-icon" d="M223.088,221.971l28.244,28.246l-17.016,17.019l-28.246-28.247L223.088,221.971z M462,125v262
	c0,41.421-33.578,75-75,75H125c-41.422,0-75-33.579-75-75V125c0-41.422,33.578-75,75-75h262C428.422,50,462,83.578,462,125z
	 M315.559,332.307c32.896-32.895,32.896-86.227,0-119.119c-32.891-32.894-86.223-32.896-119.119,0
	c-32.895,32.893-32.895,86.225,0,119.119C229.332,365.197,282.664,365.203,315.559,332.307z M399.928,263.996h-20.803
	c-0.74-10.498-2.795-20.637-6.006-30.254l19.25-7.968c-1.912-5.551-4.152-10.947-6.698-16.167l-19.268,7.975
	c-4.657-9.283-10.445-17.903-17.191-25.673l14.745-14.746c-3.871-4.37-8.004-8.502-12.373-12.374l-14.746,14.747
	c-7.564-6.571-15.936-12.235-24.941-16.828l8.099-19.206c-5.203-2.582-10.585-4.857-16.122-6.807l-8.092,19.192
	c-9.847-3.362-20.251-5.507-31.031-6.265v-20.805h-17.5v20.805c-10.498,0.738-20.638,2.795-30.256,6.006l-7.967-19.25
	c-5.551,1.911-10.947,4.151-16.167,6.697l7.976,19.268c-9.283,4.658-17.904,10.445-25.674,17.192l-14.746-14.747
	c-4.369,3.872-8.503,8.006-12.375,12.375l14.747,14.746c-6.569,7.564-12.233,15.936-16.826,24.94l-19.206-8.099
	c-2.583,5.203-4.857,10.584-6.807,16.121l19.191,8.093c-3.36,9.847-5.506,20.251-6.264,31.03h-20.805v17.5h20.809
	c0.739,10.498,2.795,20.639,6.004,30.255l-19.252,7.97c1.911,5.55,4.15,10.947,6.697,16.167l19.264-7.974
	c4.657,9.283,10.457,17.894,17.202,25.662l-15.609,15.275l12.374,12.375l28.012-27.678c-22.93-19.447-37.51-48.451-37.51-80.803
	c0-58.414,47.523-105.938,105.938-105.938s105.938,47.523,105.938,105.938c0,32.352-14.58,61.355-37.512,80.803l27.157,27.156
	c4.369-3.871,8.503-8.005,12.374-12.374l-14.753-14.755c6.569-7.564,12.235-15.932,16.827-24.935l19.213,8.101
	c2.583-5.203,4.857-10.585,6.807-16.121l-19.19-8.093c3.362-9.846,5.5-20.251,6.259-31.032h20.809V263.996z"/>
</svg>
