<?xml version="1.0" encoding="utf-8"?>

<!-- License Agreement at http://iconmonstr.com/license/ -->

<!DOCTYPE svg PUBLIC "-//W3C//DTD SVG 1.1//EN" "http://www.w3.org/Graphics/SVG/1.1/DTD/svg11.dtd">
<svg version="1.1" xmlns="http://www.w3.org/2000/svg" xmlns:xlink="http://www.w3.org/1999/xlink" x="0px" y="0px"
	 width="512px" height="512px" viewBox="0 0 512 512" style="enable-background:new 0 0 512 512;" xml:space="preserve">
<path id="control-panel-16-icon" d="M382,90c22.092,0,40,17.908,40,40v252c0,22.092-17.908,40-40,40H130c-22.092,0-40-17.908-40-40
	V130c0-22.092,17.908-40,40-40H382z M462,125c0-41.422-33.578-75-75-75H125c-41.422,0-75,33.578-75,75v262c0,41.422,33.578,75,75,75
	h262c41.422,0,75-33.578,75-75V125z M309.603,217.469c-29.602-29.604-77.601-29.606-107.207,0
	c-29.605,29.604-29.605,77.603,0,107.207c29.604,29.602,77.602,29.607,107.207,0C339.209,295.071,339.209,247.072,309.603,217.469z
	 M236.484,266.873l-25.421-25.423l15.315-15.315l25.42,25.422L236.484,266.873z M366.807,278.946
	c-0.683,9.703-2.606,19.068-5.633,27.929l17.271,7.284c-1.754,4.982-3.801,9.826-6.126,14.509l-17.291-7.291
	c-4.133,8.104-9.232,15.634-15.145,22.441l13.277,13.279c-3.484,3.933-7.204,7.653-11.137,11.137l-24.441-24.44
	c20.639-17.503,33.761-43.606,33.761-72.723c0-52.572-42.771-95.344-95.344-95.344c-52.573,0-95.344,42.771-95.344,95.344
	c0,29.116,13.122,55.22,33.759,72.723l-24.978,24.978l-11.137-11.138l13.815-13.815c-6.07-6.991-11.291-14.741-15.482-23.096
	l-17.337,7.176c-2.292-4.697-4.308-9.555-6.027-14.55l17.326-7.173c-2.888-8.654-4.738-17.781-5.403-27.229h-18.728v-15.75h18.725
	c0.682-9.701,2.612-19.065,5.637-27.927l-17.272-7.284c1.755-4.983,3.802-9.826,6.126-14.509l17.286,7.289
	c4.133-8.104,9.23-15.639,15.144-22.446l-13.272-13.271c3.484-3.933,7.205-7.653,11.138-11.138l13.271,13.272
	c6.992-6.072,14.751-11.281,23.106-15.474l-7.179-17.341c4.698-2.291,9.555-4.308,14.551-6.027l7.17,17.325
	c8.656-2.89,17.782-4.741,27.23-5.405v-18.725h15.75v18.725c9.702,0.682,19.065,2.612,27.928,5.638l7.283-17.272
	c4.983,1.754,9.826,3.802,14.51,6.126l-7.289,17.285c8.105,4.134,15.64,9.231,22.447,15.146l13.271-13.272
	c3.933,3.484,7.651,7.203,11.136,11.137l-13.271,13.271c6.071,6.992,11.28,14.751,15.472,23.105l17.341-7.177
	c2.292,4.697,4.308,9.554,6.029,14.55l-17.325,7.171c2.89,8.655,4.739,17.78,5.405,27.229h18.723v15.75H366.807z"/>
</svg>
