<?xml version="1.0" encoding="utf-8"?>

<!-- License Agreement at http://iconmonstr.com/license/ -->

<!DOCTYPE svg PUBLIC "-//W3C//DTD SVG 1.1//EN" "http://www.w3.org/Graphics/SVG/1.1/DTD/svg11.dtd">
<svg version="1.1" xmlns="http://www.w3.org/2000/svg" xmlns:xlink="http://www.w3.org/1999/xlink" x="0px" y="0px"
	 width="512px" height="512px" viewBox="0 0 512 512" style="enable-background:new 0 0 512 512;" xml:space="preserve">
<path id="control-panel-2-icon" d="M222.834,184.333c0,13.808-11.193,25-25,25c-13.809,0-25-11.192-25-25s11.191-25,25-25
	C211.641,159.333,222.834,170.525,222.834,184.333z M462,125v262c0,41.421-33.578,75-75,75H125c-41.422,0-75-33.579-75-75V125
	c0-41.421,33.578-75,75-75h262C428.422,50,462,83.579,462,125z M391.041,331.667c0-27.614-22.385-50-50-50H170.959
	c-27.615,0-50,22.386-50,50s22.385,50,50,50h170.082C368.656,381.667,391.041,359.281,391.041,331.667z M391.041,184.333
	c0-27.614-22.385-50-50-50H170.959c-27.615,0-50,22.386-50,50s22.385,50,50,50h170.082
	C368.656,234.333,391.041,211.947,391.041,184.333z M374.041,331.667c0,18.196-14.803,33-33,33H170.959c-18.197,0-33-14.804-33-33
	s14.803-33,33-33h170.082C359.238,298.667,374.041,313.471,374.041,331.667z M343.5,331.667c0-13.808-11.191-25-25-25
	c-13.807,0-25,11.192-25,25s11.193,25,25,25C332.309,356.667,343.5,345.475,343.5,331.667z"/>
</svg>
