<?xml version="1.0" encoding="utf-8"?>

<!-- License Agreement at http://iconmonstr.com/license/ -->

<!DOCTYPE svg PUBLIC "-//W3C//DTD SVG 1.1//EN" "http://www.w3.org/Graphics/SVG/1.1/DTD/svg11.dtd">
<svg version="1.1" xmlns="http://www.w3.org/2000/svg" xmlns:xlink="http://www.w3.org/1999/xlink" x="0px" y="0px"
	 width="512px" height="512px" viewBox="0 0 512 512" style="enable-background:new 0 0 512 512;" xml:space="preserve">
<path id="control-panel-3-icon" d="M382,90c22.092,0,40,17.909,40,40v252c0,22.092-17.908,40-40,40H130c-22.092,0-40-17.908-40-40
	V130c0-22.091,17.908-40,40-40H382z M462,125c0-41.421-33.578-75-75-75H125c-41.422,0-75,33.579-75,75v262c0,41.421,33.578,75,75,75
	h262c41.422,0,75-33.579,75-75V125z M379.041,187.333c0-27.614-22.385-50-50-50H182.959c-27.615,0-50,22.386-50,50s22.385,50,50,50
	h146.082C356.656,237.333,379.041,214.947,379.041,187.333z M209.834,212.333c-13.809,0-25-11.192-25-25s11.191-25,25-25
	c13.807,0,25,11.192,25,25S223.641,212.333,209.834,212.333z M329.041,295.667c18.197,0,33,14.804,33,33s-14.803,33-33,33H182.959
	c-18.197,0-33-14.804-33-33s14.803-33,33-33H329.041z M379.041,328.667c0-27.614-22.385-50-50-50H182.959c-27.615,0-50,22.386-50,50
	s22.385,50,50,50h146.082C356.656,378.667,379.041,356.281,379.041,328.667z M306.5,353.667c-13.807,0-25-11.192-25-25
	s11.193-25,25-25c13.809,0,25,11.192,25,25S320.309,353.667,306.5,353.667z"/>
</svg>
