<?xml version="1.0" encoding="utf-8"?>

<!-- License Agreement at http://iconmonstr.com/license/ -->

<!DOCTYPE svg PUBLIC "-//W3C//DTD SVG 1.1//EN" "http://www.w3.org/Graphics/SVG/1.1/DTD/svg11.dtd">
<svg version="1.1" xmlns="http://www.w3.org/2000/svg" xmlns:xlink="http://www.w3.org/1999/xlink" x="0px" y="0px"
	 width="512px" height="512px" viewBox="0 0 512 512" style="enable-background:new 0 0 512 512;" xml:space="preserve">
<path id="control-panel-4-icon" d="M170,294c0,33.138-26.862,60-60,60c-33.137,0-60-26.862-60-60c0-33.137,26.863-60,60-60
	C143.138,234,170,260.863,170,294z M110,384c-6.872,0-13.565-0.777-20-2.243V422c0,11.046,8.954,20,20,20s20-8.954,20-20v-40.243
	C123.565,383.223,116.872,384,110,384z M110,204c6.872,0,13.565,0.777,20,2.243V90c0-11.046-8.954-20-20-20s-20,8.954-20,20v116.243
	C96.435,204.777,103.128,204,110,204z M256,197c12.131,0,22,9.869,22,22s-9.869,22-22,22s-22-9.869-22-22S243.869,197,256,197z
	 M256,159c-33.137,0-60,26.863-60,60c0,33.138,26.863,60,60,60c33.138,0,60-26.862,60-60C316,185.863,289.138,159,256,159z M256,129
	c6.872,0,13.565,0.777,20,2.243V90c0-11.046-8.954-20-20-20s-20,8.954-20,20v41.243C242.435,129.777,249.128,129,256,129z M256,309
	c-6.872,0-13.565-0.777-20-2.243V422c0,11.046,8.954,20,20,20s20-8.954,20-20V306.757C269.565,308.223,262.872,309,256,309z
	 M402,234c-33.137,0-60,26.863-60,60c0,33.138,26.863,60,60,60c33.138,0,60-26.862,60-60C462,260.863,435.138,234,402,234z M402,204
	c6.872,0,13.565,0.777,20,2.243V90c0-11.046-8.954-20-20-20s-20,8.954-20,20v116.243C388.435,204.777,395.128,204,402,204z M402,384
	c-6.872,0-13.565-0.777-20-2.243V422c0,11.046,8.954,20,20,20s20-8.954,20-20v-40.243C415.565,383.223,408.872,384,402,384z"/>
</svg>
