<?xml version="1.0" encoding="utf-8"?>

<!-- License Agreement at http://iconmonstr.com/license/ -->

<!DOCTYPE svg PUBLIC "-//W3C//DTD SVG 1.1//EN" "http://www.w3.org/Graphics/SVG/1.1/DTD/svg11.dtd">
<svg version="1.1" xmlns="http://www.w3.org/2000/svg" xmlns:xlink="http://www.w3.org/1999/xlink" x="0px" y="0px"
	 width="512px" height="512px" viewBox="0 0 512 512" style="enable-background:new 0 0 512 512;" xml:space="preserve">
<path id="control-panel-5-icon" d="M235.5,294c0,33.138-26.862,60-60,60c-33.137,0-60-26.862-60-60c0-33.137,26.863-60,60-60
	C208.638,234,235.5,260.863,235.5,294z M175.5,384c-6.872,0-13.565-0.777-20-2.243V422c0,11.046,8.954,20,20,20s20-8.954,20-20
	v-40.243C189.065,383.223,182.372,384,175.5,384z M175.5,204c6.872,0,13.565,0.777,20,2.243V90c0-11.046-8.954-20-20-20
	s-20,8.954-20,20v116.243C161.935,204.777,168.628,204,175.5,204z M336.5,197c12.131,0,22,9.869,22,22s-9.869,22-22,22
	s-22-9.869-22-22S324.369,197,336.5,197z M336.5,159c-33.137,0-60,26.863-60,60c0,33.138,26.863,60,60,60c33.138,0,60-26.862,60-60
	C396.5,185.863,369.638,159,336.5,159z M336.5,129c6.872,0,13.565,0.777,20,2.243V90c0-11.046-8.954-20-20-20s-20,8.954-20,20
	v41.243C322.935,129.777,329.628,129,336.5,129z M336.5,309c-6.872,0-13.565-0.777-20-2.243V422c0,11.046,8.954,20,20,20
	s20-8.954,20-20V306.757C350.065,308.223,343.372,309,336.5,309z"/>
</svg>
