<?xml version="1.0" encoding="utf-8"?>

<!-- License Agreement at http://iconmonstr.com/license/ -->

<!DOCTYPE svg PUBLIC "-//W3C//DTD SVG 1.1//EN" "http://www.w3.org/Graphics/SVG/1.1/DTD/svg11.dtd">
<svg version="1.1" xmlns="http://www.w3.org/2000/svg" xmlns:xlink="http://www.w3.org/1999/xlink" x="0px" y="0px"
	 width="512px" height="512px" viewBox="0 0 512 512" style="enable-background:new 0 0 512 512;" xml:space="preserve">
<path id="control-panel-6-icon" d="M349.843,238.786c0,10.158-8.266,18.425-18.425,18.425s-18.426-8.267-18.426-18.425
	c0-10.16,8.267-18.426,18.426-18.426S349.843,228.626,349.843,238.786z M462,125v262c0,41.421-33.578,75-75,75H125
	c-41.422,0-75-33.579-75-75V125c0-41.422,33.578-75,75-75h262C428.422,50,462,83.578,462,125z M314.668,165.29
	c5.388-1.227,10.993-1.879,16.75-1.879c5.754,0,11.359,0.652,16.75,1.879v-32.54c0-9.251-7.5-16.75-16.75-16.75
	c-9.252,0-16.75,7.499-16.75,16.75V165.29z M163.832,200.557c5.389-1.228,10.994-1.879,16.75-1.879c5.755,0,11.36,0.651,16.75,1.879
	V132.75c0-9.251-7.5-16.75-16.75-16.75c-9.251,0-16.75,7.499-16.75,16.75V200.557z M197.332,347.548
	c-5.39,1.227-10.995,1.878-16.75,1.878c-5.756,0-11.361-0.651-16.75-1.878v31.702c0,9.251,7.499,16.75,16.75,16.75
	c9.25,0,16.75-7.499,16.75-16.75V347.548z M230.832,274.052c0-27.751-22.498-50.249-50.25-50.249
	c-27.751,0-50.249,22.498-50.249,50.249c0,27.753,22.498,50.249,50.249,50.249C208.334,324.301,230.832,301.805,230.832,274.052z
	 M348.168,312.281c-5.391,1.228-10.996,1.879-16.75,1.879c-5.757,0-11.362-0.651-16.75-1.879v66.969
	c0,9.251,7.498,16.75,16.75,16.75c9.25,0,16.75-7.499,16.75-16.75V312.281z M381.667,238.786c0-27.752-22.498-50.25-50.249-50.25
	c-27.752,0-50.25,22.498-50.25,50.25s22.498,50.249,50.25,50.249C359.169,289.035,381.667,266.538,381.667,238.786z"/>
</svg>
