<?xml version="1.0" encoding="utf-8"?>

<!-- License Agreement at http://iconmonstr.com/license/ -->

<!DOCTYPE svg PUBLIC "-//W3C//DTD SVG 1.1//EN" "http://www.w3.org/Graphics/SVG/1.1/DTD/svg11.dtd">
<svg version="1.1" xmlns="http://www.w3.org/2000/svg" xmlns:xlink="http://www.w3.org/1999/xlink" x="0px" y="0px"
	 width="512px" height="512px" viewBox="0 0 512 512" style="enable-background:new 0 0 512 512;" xml:space="preserve">
<path id="control-panel-7-icon" d="M382,90c22.092,0,40,17.908,40,40v252c0,22.092-17.908,40-40,40H130c-22.092,0-40-17.908-40-40
	V130c0-22.092,17.908-40,40-40H382z M462,125c0-41.422-33.578-75-75-75H125c-41.422,0-75,33.578-75,75v262c0,41.422,33.578,75,75,75
	h262c41.422,0,75-33.578,75-75V125z M233.35,273.947c0,24.977-20.248,45.224-45.225,45.224S142.9,298.924,142.9,273.947
	s20.248-45.225,45.225-45.225S233.35,248.971,233.35,273.947z M188.125,341.783c-5.182,0-10.227-0.586-15.076-1.689v28.331
	c0,8.326,6.75,15.075,15.076,15.075c8.324,0,15.074-6.749,15.074-15.075v-28.331C198.348,341.197,193.303,341.783,188.125,341.783z
	 M188.125,206.109c5.178,0,10.223,0.587,15.074,1.691v-61.226c0-8.326-6.75-15.075-15.074-15.075
	c-8.326,0-15.076,6.749-15.076,15.075v61.226C177.898,206.696,182.943,206.109,188.125,206.109z M323.877,225.225
	c9.143,0,16.582,7.439,16.582,16.583c0,9.142-7.439,16.582-16.582,16.582c-9.145,0-16.584-7.44-16.584-16.582
	C307.293,232.664,314.732,225.225,323.877,225.225z M323.877,196.582c-24.977,0-45.225,20.248-45.225,45.226
	c0,24.977,20.248,45.224,45.225,45.224c24.975,0,45.223-20.247,45.223-45.224C369.1,216.83,348.852,196.582,323.877,196.582z
	 M323.877,173.971c5.178,0,10.223,0.586,15.074,1.69v-29.086c0-8.326-6.75-15.075-15.074-15.075
	c-8.328,0-15.076,6.749-15.076,15.075v29.086C313.65,174.557,318.695,173.971,323.877,173.971z M323.877,309.645
	c-5.182,0-10.227-0.586-15.076-1.691v60.472c0,8.326,6.748,15.075,15.076,15.075c8.324,0,15.074-6.749,15.074-15.075v-60.472
	C334.1,309.059,329.055,309.645,323.877,309.645z"/>
</svg>
